<svg width="12" height="12" viewBox="0 0 19 20" fill="none" xmlns="http://www.w3.org/2000/svg" role="img"
    data-testid="verified-campaigner-badge" className="ml-2 -mt-[12px] inline-block">
    <path fillRule="evenodd" clipRule="evenodd"
        d="M10.407 1.689c-.293-1.585-2.471-1.585-2.764 0-.207 1.124-1.517 1.577-2.328.804l-.126-.12c-1.121-1.068-2.83.273-2.157 1.693.485 1.021-.316 2.195-1.402 2.052l-.103-.014C.031 5.906-.607 8.022.73 8.751c.967.528.967 1.97 0 2.498-1.336.729-.698 2.845.798 2.647l.103-.014c1.086-.143 1.887 1.03 1.402 2.052-.674 1.42 1.036 2.761 2.157 1.693l.126-.12c.81-.773 2.12-.32 2.328.804.293 1.585 2.471 1.585 2.764 0 .207-1.124 1.517-1.577 2.328-.804l.126.12c1.121 1.068 2.83-.273 2.157-1.693-.485-1.021.316-2.195 1.402-2.052l.103.014c1.496.198 2.134-1.918.798-2.647-.968-.528-.968-1.97 0-2.498 1.336-.729.698-2.845-.798-2.647l-.103.014c-1.086.143-1.887-1.03-1.402-2.052.673-1.42-1.036-2.761-2.157-1.692l-.126.12c-.81.772-2.12.32-2.328-.805Zm1.534 5.665c.452.337.544.975.204 1.424L9.21 12.443a1.026 1.026 0 0 1-1.543.109L6 10.814c-.4-.397-.4-1.042 0-1.44a1.029 1.029 0 0 1 1.449 0l.83.909 2.228-2.726c.339-.45.98-.54 1.434-.203Z"
        fill="#10A8E5"></path>
</svg>